<svg width="30" height="31" viewBox="0 0 30 31" fill="none" xmlns="http://www.w3.org/2000/svg">
<g clip-path="url(#clip0_810_1301)">
<path d="M22.5 25.0959H5V7.59595H16.25V5.09595H5C3.625 5.09595 2.5 6.22095 2.5 7.59595V25.0959C2.5 26.4709 3.625 27.5959 5 27.5959H22.5C23.875 27.5959 25 26.4709 25 25.0959V13.8459H22.5V25.0959ZM12.7625 21.1334L10.3125 18.1834L6.875 22.5959H20.625L16.2 16.7084L12.7625 21.1334ZM25 5.09595V1.34595H22.5V5.09595H18.75C18.7625 5.10845 18.75 7.59595 18.75 7.59595H22.5V11.3334C22.5125 11.3459 25 11.3334 25 11.3334V7.59595H28.75V5.09595H25Z" fill="#3068D9"/>
</g>
<defs>
<clipPath id="clip0_810_1301">
<rect width="30" height="30" fill="white" transform="translate(0 0.0959473)"/>
</clipPath>
</defs>
</svg>
