<svg width="30" height="31" viewBox="0 0 30 31" fill="none" xmlns="http://www.w3.org/2000/svg">
<g clip-path="url(#clip0_810_1290)">
<path d="M10 16.3459H20V13.8459H10V16.3459ZM25.125 15.0959H27.5C27.5 18.5459 24.7 21.3459 21.25 21.3459H16.25V18.9709H21.25C23.3875 18.9709 25.125 17.2334 25.125 15.0959ZM4.875 15.0959C4.875 17.2334 6.6125 18.9709 8.75 18.9709H13.75V21.3459H8.75C5.3 21.3459 2.5 18.5459 2.5 15.0959C2.5 11.6459 5.3 8.84595 8.75 8.84595H13.75V11.2209H8.75C6.6125 11.2209 4.875 12.9584 4.875 15.0959ZM23.75 15.0959H21.25V11.3459H17.5V8.84595H21.25V5.09595H23.75V8.84595H27.5V11.3459H23.75V15.0959Z" fill="#3068D9"/>
</g>
<defs>
<clipPath id="clip0_810_1290">
<rect width="30" height="30" fill="white" transform="matrix(1 0 0 -1 0 30.0959)"/>
</clipPath>
</defs>
</svg>
