<svg width="30" height="31" viewBox="0 0 30 31" fill="none" xmlns="http://www.w3.org/2000/svg">
<path d="M12.4405 27.8944C10.4781 27.8944 8.81427 27.2118 7.44911 25.8467C6.08395 24.4815 5.40137 22.8177 5.40137 20.8553V7.41697C5.40137 6.00914 5.90264 4.80396 6.90518 3.80142C7.90772 2.79888 9.1129 2.29761 10.5207 2.29761C11.9286 2.29761 13.1337 2.79888 14.1363 3.80142C15.1388 4.80396 15.6401 6.00914 15.6401 7.41697V17.6557H13.7203V7.41697C13.7203 6.52108 13.411 5.76384 12.7924 5.14525C12.1739 4.52666 11.4166 4.21737 10.5207 4.21737C9.62484 4.21737 8.8676 4.52666 8.24901 5.14525C7.63042 5.76384 7.32113 6.52108 7.32113 7.41697V20.8553C7.32113 22.2631 7.8224 23.4683 8.82494 24.4708C9.82748 25.4734 11.0327 25.9746 12.4405 25.9746C13.0591 25.9746 13.6406 25.8731 14.1849 25.67C14.7284 25.4678 15.2135 25.1854 15.6401 24.8228V27.1265C15.1495 27.3611 14.6375 27.5476 14.1043 27.6858C13.571 27.8249 13.0164 27.8944 12.4405 27.8944ZM18.1998 26.6146V22.775H14.3602V20.2154H18.1998V16.3758H20.7594V20.2154H24.599V22.775H20.7594V26.6146H18.1998ZM12.4405 20.8553V22.775C11.5446 22.775 10.7874 22.4658 10.1688 21.8472C9.55018 21.2286 9.24089 20.4713 9.24089 19.5754V7.41697H11.1606V19.5754C11.1606 19.9381 11.2835 20.2418 11.5292 20.4867C11.7741 20.7324 12.0779 20.8553 12.4405 20.8553ZM17.5598 13.8162V7.41697H19.4796V13.8162H17.5598Z" fill="#3068D9"/>
</svg>
