<svg width="30" height="30" viewBox="0 0 30 30" fill="none" xmlns="http://www.w3.org/2000/svg">
<g clip-path="url(#clip0_1410_4075)">
<path d="M22.5 25H5V7.5H16.25V5H5C3.625 5 2.5 6.125 2.5 7.5V25C2.5 26.375 3.625 27.5 5 27.5H22.5C23.875 27.5 25 26.375 25 25V13.75H22.5V25ZM12.7625 21.0375L10.3125 18.0875L6.875 22.5H20.625L16.2 16.6125L12.7625 21.0375ZM25 5V1.25H22.5V5H18.75C18.7625 5.0125 18.75 7.5 18.75 7.5H22.5V11.2375C22.5125 11.25 25 11.2375 25 11.2375V7.5H28.75V5H25Z" fill="#F4632A"/>
</g>
<defs>
<clipPath id="clip0_1410_4075">
<rect width="30" height="30" fill="white"/>
</clipPath>
</defs>
</svg>
