<svg width="30" height="30" viewBox="0 0 30 30" fill="none" xmlns="http://www.w3.org/2000/svg">
<path d="M12.4405 27.7985C10.4781 27.7985 8.81427 27.1159 7.44911 25.7507C6.08395 24.3856 5.40137 22.7218 5.40137 20.7593V7.32102C5.40137 5.9132 5.90264 4.70801 6.90518 3.70547C7.90772 2.70293 9.1129 2.20166 10.5207 2.20166C11.9286 2.20166 13.1337 2.70293 14.1363 3.70547C15.1388 4.70801 15.6401 5.9132 15.6401 7.32102V17.5597H13.7203V7.32102C13.7203 6.42513 13.411 5.66789 12.7924 5.0493C12.1739 4.43071 11.4166 4.12142 10.5207 4.12142C9.62484 4.12142 8.8676 4.43071 8.24901 5.0493C7.63042 5.66789 7.32113 6.42513 7.32113 7.32102V20.7593C7.32113 22.1672 7.8224 23.3723 8.82494 24.3749C9.82748 25.3774 11.0327 25.8787 12.4405 25.8787C13.0591 25.8787 13.6406 25.7772 14.1849 25.5741C14.7284 25.3719 15.2135 25.0895 15.6401 24.7268V27.0306C15.1495 27.2652 14.6375 27.4516 14.1043 27.5898C13.571 27.7289 13.0164 27.7985 12.4405 27.7985ZM18.1998 26.5186V22.6791H14.3602V20.1194H18.1998V16.2799H20.7594V20.1194H24.599V22.6791H20.7594V26.5186H18.1998ZM12.4405 20.7593V22.6791C11.5446 22.6791 10.7874 22.3698 10.1688 21.7512C9.55018 21.1326 9.24089 20.3754 9.24089 19.4795V7.32102H11.1606V19.4795C11.1606 19.8421 11.2835 20.1459 11.5292 20.3907C11.7741 20.6365 12.0779 20.7593 12.4405 20.7593ZM17.5598 13.7202V7.32102H19.4796V13.7202H17.5598Z" fill="#F4632A"/>
</svg>
