<svg width="20" height="20" viewBox="0 0 20 20" fill="none" xmlns="http://www.w3.org/2000/svg">
<g clip-path="url(#clip0_1523_4563)">
<path fill-rule="evenodd" clip-rule="evenodd" d="M13.0384 0C13.5019 0 13.9572 0.188229 14.2854 0.516469L17.7149 3.94589C18.0478 4.27882 18.2313 4.72234 18.2313 5.19294V20H1.76074V0H13.0384ZM12.349 1.17647H2.9372V18.8235H17.0548V5.88235H12.349V1.17646L12.349 1.17647ZM13.5254 1.42V4.70589H16.8113L13.5254 1.42Z" fill="#F4632A"/>
<path fill-rule="evenodd" clip-rule="evenodd" d="M9.38016 7.05906C9.65898 7.05906 9.90487 7.19083 10.0884 7.45317C10.5249 8.06847 10.4943 8.72376 10.3331 9.60611C10.2778 9.90965 10.3343 10.2167 10.5025 10.472C10.7402 10.8344 11.0825 11.3332 11.419 11.7555C11.666 12.0673 12.046 12.2332 12.4308 12.1814C12.6778 12.1473 12.9755 12.1191 13.2813 12.1191C14.646 12.1191 14.5437 12.6061 14.6672 13.0532C14.7355 13.3238 14.7013 13.5602 14.5613 13.7355C14.3872 13.972 14.0284 14.0944 13.5037 14.0944C12.9225 14.0944 12.7308 13.9955 12.2249 13.8344C11.939 13.7426 11.6425 13.7238 11.3531 13.8002C10.7755 13.9508 9.82251 14.1802 9.02722 14.2896C8.60251 14.3485 8.21664 14.5673 7.96016 14.9238C7.38251 15.7238 6.84722 16.4708 5.99898 16.4708C5.78016 16.4708 5.57898 16.392 5.41311 16.2344C5.1684 15.9896 5.06369 15.7179 5.11546 15.4026C5.25898 14.4344 6.44958 13.8944 7.15781 13.5002C7.32487 13.4073 7.45664 13.2649 7.53898 13.0885L8.66252 10.6591C8.74252 10.4885 8.76722 10.2991 8.73781 10.112C8.60722 9.28847 8.41427 7.90377 8.93311 7.27788C9.04722 7.13788 9.20488 7.05906 9.38016 7.05906ZM9.59428 10.6002C9.14369 11.9191 8.34722 13.3532 8.24016 13.5202C9.20134 13.0685 11.1143 12.8402 11.1143 12.8402C10.1519 11.9132 9.59428 10.6002 9.59428 10.6002Z" fill="#F4632A"/>
</g>
<defs>
<clipPath id="clip0_1523_4563">
<rect width="20" height="20" fill="white"/>
</clipPath>
</defs>
</svg>
