<svg width="20" height="20" viewBox="0 0 20 20" fill="none" xmlns="http://www.w3.org/2000/svg">
<path d="M13.8889 8.05556L16.3941 6.55243C17.1652 6.08976 17.5508 5.85843 17.868 5.888C18.1446 5.91378 18.397 6.05667 18.5614 6.2806C18.75 6.53742 18.75 6.98704 18.75 7.8863V12.1137C18.75 13.0129 18.75 13.4626 18.5614 13.7194C18.397 13.9433 18.1446 14.0863 17.868 14.112C17.5508 14.1416 17.1652 13.9103 16.3941 13.4476L13.8889 11.9444M4.36111 15.8333H10.7778C11.8668 15.8333 12.4113 15.8333 12.8272 15.6214C13.1931 15.435 13.4906 15.1375 13.6769 14.7717C13.8889 14.3558 13.8889 13.8112 13.8889 12.7222V7.27778C13.8889 6.1888 13.8889 5.64429 13.6769 5.22836C13.4906 4.86248 13.1931 4.56502 12.8272 4.37861C12.4113 4.16667 11.8668 4.16667 10.7778 4.16667H4.36111C3.27212 4.16667 2.72762 4.16667 2.31169 4.37861C1.94581 4.56502 1.64835 4.86248 1.46193 5.22836C1.25 5.64429 1.25 6.18879 1.25 7.27778V12.7222C1.25 13.8112 1.25 14.3558 1.46193 14.7717C1.64835 15.1375 1.94581 15.435 2.31169 15.6214C2.72762 15.8333 3.27212 15.8333 4.36111 15.8333Z" stroke="#F4632A" stroke-width="1.2" stroke-linecap="round" stroke-linejoin="round"/>
</svg>
