<svg width="20" height="20" viewBox="0 0 20 20" fill="none" xmlns="http://www.w3.org/2000/svg">
<path d="M8.29333 18.5323C6.98505 18.5323 5.87586 18.0773 4.96575 17.1671C4.05564 16.257 3.60059 15.1478 3.60059 13.8396V4.88068C3.60059 3.94213 3.93477 3.13868 4.60313 2.47031C5.27149 1.80195 6.07494 1.46777 7.01349 1.46777C7.95204 1.46777 8.7555 1.80195 9.42386 2.47031C10.0922 3.13868 10.4264 3.94213 10.4264 4.88068V11.7065H9.14656V4.88068C9.14656 4.28342 8.94036 3.7786 8.52797 3.3662C8.11558 2.95381 7.61075 2.74761 7.01349 2.74761C6.41623 2.74761 5.91141 2.95381 5.49902 3.3662C5.08662 3.7786 4.88043 4.28342 4.88043 4.88068V13.8396C4.88043 14.7781 5.21461 15.5816 5.88297 16.2499C6.55133 16.9183 7.35478 17.2525 8.29333 17.2525C8.70573 17.2525 9.09337 17.1848 9.45628 17.0494C9.81862 16.9146 10.142 16.7263 10.4264 16.4846V18.0204C10.0993 18.1768 9.75804 18.3011 9.40253 18.3932C9.04702 18.4859 8.67728 18.5323 8.29333 18.5323ZM12.1329 17.6791V15.1194H9.57317V13.4129H12.1329V10.8533H13.8393V13.4129H16.399V15.1194H13.8393V17.6791H12.1329ZM8.29333 13.8396V15.1194C7.69607 15.1194 7.19125 14.9132 6.77886 14.5008C6.36646 14.0884 6.16027 13.5836 6.16027 12.9863V4.88068H7.44011V12.9863C7.44011 13.2281 7.52202 13.4306 7.68584 13.5938C7.84909 13.7577 8.05158 13.8396 8.29333 13.8396ZM11.7062 9.14681V4.88068H12.9861V9.14681H11.7062Z" fill="#3068D9"/>
</svg>
