<svg width="20" height="20" viewBox="0 0 20 20" fill="none" xmlns="http://www.w3.org/2000/svg">
<g clip-path="url(#clip0_971_6881)">
<path d="M6.66699 10.8337H13.3337V9.16699H6.66699V10.8337ZM16.7503 10.0003H18.3337C18.3337 12.3003 16.467 14.167 14.167 14.167H10.8337V12.5837H14.167C15.592 12.5837 16.7503 11.4253 16.7503 10.0003ZM3.25033 10.0003C3.25033 11.4253 4.40866 12.5837 5.83366 12.5837H9.16699V14.167H5.83366C3.53366 14.167 1.66699 12.3003 1.66699 10.0003C1.66699 7.70033 3.53366 5.83366 5.83366 5.83366H9.16699V7.41699H5.83366C4.40866 7.41699 3.25033 8.57533 3.25033 10.0003ZM15.8337 10.0003H14.167V7.50033H11.667V5.83366H14.167V3.33366H15.8337V5.83366H18.3337V7.50033H15.8337V10.0003Z" fill="#3068D9"/>
</g>
<defs>
<clipPath id="clip0_971_6881">
<rect width="20" height="20" fill="white" transform="matrix(1 0 0 -1 0 20)"/>
</clipPath>
</defs>
</svg>
