<svg width="20" height="20" viewBox="0 0 20 20" fill="none" xmlns="http://www.w3.org/2000/svg">
<g clip-path="url(#clip0_1108_4724)">
<path d="M17.5018 4.37422H10.001L8.12578 2.49902H2.5002C1.46884 2.49902 0.625 3.34286 0.625 4.37422V15.6254C0.625 16.6567 1.46884 17.5006 2.5002 17.5006H17.5018C18.5331 17.5006 19.377 16.6567 19.377 15.6254V6.24941C19.377 5.21806 18.5331 4.37422 17.5018 4.37422ZM17.5018 15.6254H2.5002V4.37422H7.34758L8.66959 5.69623L9.22277 6.24941H17.5018V15.6254ZM10.151 9.99981H6.25059V11.875H10.151L8.66021 13.3658L9.9916 14.6878L13.7514 10.9468L9.9916 7.18701L8.66959 8.50903L10.151 9.99981Z" fill="#3068D9"/>
</g>
<defs>
<clipPath id="clip0_1108_4724">
<rect width="20" height="20" fill="white"/>
</clipPath>
</defs>
</svg>
