<svg width="72" height="72" viewBox="0 0 72 72" fill="none" xmlns="http://www.w3.org/2000/svg">
<path d="M41.0114 30.2906V25.6687C42.4926 25.0344 44.008 24.5586 45.5575 24.2414C47.1051 23.9242 48.7318 23.7656 50.4375 23.7656C51.6045 23.7656 52.7491 23.8562 53.8713 24.0375C54.9935 24.2188 56.0932 24.4453 57.1705 24.7172V29.0672C56.0932 28.6594 55.0051 28.354 53.9063 28.151C52.8057 27.9462 51.6494 27.8438 50.4375 27.8438C48.7318 27.8438 47.0935 28.0594 45.5224 28.4908C43.9514 28.9204 42.4477 29.5203 41.0114 30.2906ZM41.0114 45.2437V40.6219C42.4926 39.9875 44.008 39.5117 45.5575 39.1945C47.1051 38.8773 48.7318 38.7188 50.4375 38.7188C51.6045 38.7188 52.7491 38.8094 53.8713 38.9906C54.9935 39.1719 56.0932 39.3984 57.1705 39.6703V44.0203C56.0932 43.6125 55.0051 43.3071 53.9063 43.1041C52.8057 42.8993 51.6494 42.7969 50.4375 42.7969C48.7318 42.7969 47.0935 43.0008 45.5224 43.4086C43.9514 43.8164 42.4477 44.4281 41.0114 45.2437ZM41.0114 37.7672V33.1453C42.4926 32.5109 44.008 32.0352 45.5575 31.718C47.1051 31.4008 48.7318 31.2422 50.4375 31.2422C51.6045 31.2422 52.7491 31.3328 53.8713 31.5141C54.9935 31.6953 56.0932 31.9219 57.1705 32.1938V36.5437C56.0932 36.1359 55.0051 35.8305 53.9063 35.6275C52.8057 35.4227 51.6494 35.3203 50.4375 35.3203C48.7318 35.3203 47.0935 35.536 45.5224 35.9674C43.9514 36.3969 42.4477 36.9969 41.0114 37.7672ZM20.8125 46.875C22.9222 46.875 24.9762 47.1124 26.9745 47.5873C28.971 48.064 30.9568 48.7781 32.9318 49.7297V22.95C31.0915 21.8625 29.1389 21.0469 27.0741 20.5031C25.0094 19.9594 22.9222 19.6875 20.8125 19.6875C19.1966 19.6875 17.5924 19.8461 15.9998 20.1633C14.4054 20.4805 12.8676 20.9562 11.3864 21.5906V48.5063C12.9574 47.9625 14.5176 47.5547 16.0671 47.2828C17.6148 47.0109 19.1966 46.875 20.8125 46.875ZM38.3182 49.7297C40.2932 48.7781 42.2799 48.064 44.2782 47.5873C46.2747 47.1124 48.3278 46.875 50.4375 46.875C52.0534 46.875 53.6361 47.0109 55.1856 47.2828C56.7333 47.5547 58.2926 47.9625 59.8636 48.5063V21.5906C58.3824 20.9562 56.8455 20.4805 55.2529 20.1633C53.6585 19.8461 52.0534 19.6875 50.4375 19.6875C48.3278 19.6875 46.2406 19.9594 44.1759 20.5031C42.1111 21.0469 40.1585 21.8625 38.3182 22.95V49.7297ZM35.625 57.75C33.4705 56.0281 31.1364 54.6914 28.6227 53.7398C26.1091 52.7883 23.5057 52.3125 20.8125 52.3125C18.9273 52.3125 17.0762 52.5617 15.2592 53.0602C13.4404 53.5586 11.7006 54.2609 10.0398 55.1672C9.09716 55.6656 8.18866 55.643 7.31427 55.0992C6.43809 54.5555 6 53.7625 6 52.7203V19.9594C6 19.4609 6.12389 18.9852 6.37166 18.532C6.61764 18.0789 6.9875 17.7391 7.48125 17.5125C9.54602 16.425 11.7006 15.6094 13.9449 15.0656C16.1892 14.5219 18.4784 14.25 20.8125 14.25C23.4159 14.25 25.9637 14.5898 28.4557 15.2695C30.946 15.9492 33.3358 16.9688 35.625 18.3281C37.9142 16.9688 40.3049 15.9492 42.7969 15.2695C45.2872 14.5898 47.8341 14.25 50.4375 14.25C52.7716 14.25 55.0608 14.5219 57.3051 15.0656C59.5494 15.6094 61.704 16.425 63.7687 17.5125C64.2625 17.7391 64.6333 18.0789 64.881 18.532C65.127 18.9852 65.25 19.4609 65.25 19.9594V52.7203C65.25 53.7625 64.8128 54.5555 63.9384 55.0992C63.0622 55.643 62.1528 55.6656 61.2102 55.1672C59.5494 54.2609 57.8096 53.5586 55.9908 53.0602C54.1738 52.5617 52.3227 52.3125 50.4375 52.3125C47.7443 52.3125 45.1409 52.7883 42.6273 53.7398C40.1136 54.6914 37.7795 56.0281 35.625 57.75Z" fill="white"/>
</svg>
