<svg width="17" height="16" viewBox="0 0 17 16" fill="none" xmlns="http://www.w3.org/2000/svg">
<path d="M7.41852 11.6192L12.4449 6.56666L11.4468 5.56333L7.41852 9.61249L5.38657 7.56999L4.38843 8.57333L7.41852 11.6192ZM3.42593 15.1667C3.0338 15.1667 2.69799 15.0264 2.41851 14.746C2.1395 14.465 2 14.1275 2 13.7333V3.69999C2 3.30583 2.1395 2.96828 2.41851 2.68734C2.69799 2.40689 3.0338 2.26666 3.42593 2.26666H6.42037C6.57485 1.83666 6.83341 1.49027 7.19607 1.22749C7.55826 0.964717 7.96512 0.833328 8.41667 0.833328C8.86821 0.833328 9.27531 0.964717 9.63797 1.22749C10.0002 1.49027 10.2585 1.83666 10.413 2.26666H13.4074C13.7995 2.26666 14.1353 2.40689 14.4148 2.68734C14.6938 2.96828 14.8333 3.30583 14.8333 3.69999V13.7333C14.8333 14.1275 14.6938 14.465 14.4148 14.746C14.1353 15.0264 13.7995 15.1667 13.4074 15.1667H3.42593ZM3.42593 13.7333H13.4074V3.69999H3.42593V13.7333ZM8.41667 3.16249C8.57114 3.16249 8.699 3.11161 8.80024 3.00985C8.90101 2.90856 8.95139 2.78027 8.95139 2.62499C8.95139 2.46972 8.90101 2.34119 8.80024 2.23943C8.699 2.13814 8.57114 2.08749 8.41667 2.08749C8.26219 2.08749 8.13457 2.13814 8.03381 2.23943C7.93256 2.34119 7.88194 2.46972 7.88194 2.62499C7.88194 2.78027 7.93256 2.90856 8.03381 3.00985C8.13457 3.11161 8.26219 3.16249 8.41667 3.16249Z" fill="black"/>
</svg>
