<svg width="17" height="16" viewBox="0 0 17 16" fill="none" xmlns="http://www.w3.org/2000/svg">
<g clip-path="url(#clip0_327_488)">
<path d="M8.49992 1.33331C4.81992 1.33331 1.83325 4.31998 1.83325 7.99998C1.83325 11.68 4.81992 14.6666 8.49992 14.6666C12.1799 14.6666 15.1666 11.68 15.1666 7.99998C15.1666 4.31998 12.1799 1.33331 8.49992 1.33331ZM8.49992 13.3333C5.55992 13.3333 3.16659 10.94 3.16659 7.99998C3.16659 5.05998 5.55992 2.66665 8.49992 2.66665C11.4399 2.66665 13.8333 5.05998 13.8333 7.99998C13.8333 10.94 11.4399 13.3333 8.49992 13.3333ZM11.5599 5.05331L7.16659 9.44665L5.43992 7.72665L4.49992 8.66665L7.16659 11.3333L12.4999 5.99998L11.5599 5.05331Z" fill="#2C3142"/>
</g>
<defs>
<clipPath id="clip0_327_488">
<rect width="16" height="16" fill="white" transform="translate(0.5)"/>
</clipPath>
</defs>
</svg>
