<svg width="46" height="46" viewBox="0 0 46 46" fill="none" xmlns="http://www.w3.org/2000/svg">
<path d="M16.1 39H29.9L31.9 31H14.1L16.1 39ZM16.1 43C15.1667 43 14.35 42.7167 13.65 42.15C12.95 41.5833 12.4833 40.85 12.25 39.95L10 31H36L33.75 39.95C33.5167 40.85 33.05 41.5833 32.35 42.15C31.65 42.7167 30.8333 43 29.9 43H16.1ZM9 27H37V23H9V27ZM23 15C23 11.6667 24.1667 8.83333 26.5 6.5C28.8333 4.16667 31.6667 3 35 3C35 6 34.05 8.6 32.15 10.8C30.25 13 27.8667 14.3333 25 14.8V19H41V27C41 28.1 40.6087 29.0413 39.826 29.824C39.042 30.608 38.1 31 37 31H9C7.9 31 6.958 30.608 6.174 29.824C5.39133 29.0413 5 28.1 5 27V19H21V14.8C18.1333 14.3333 15.75 13 13.85 10.8C11.95 8.6 11 6 11 3C14.3333 3 17.1667 4.16667 19.5 6.5C21.8333 8.83333 23 11.6667 23 15Z" fill="white"/>
</svg>
