<svg width="19" height="18" viewBox="0 0 19 18" fill="none" xmlns="http://www.w3.org/2000/svg">
<path d="M14.791 8.0752C14.791 8.69457 14.791 9.3047 14.791 9.92407C15.9003 9.92407 17.3425 9.92407 18.4888 9.92407C18.4888 9.3047 18.4888 8.69457 18.4888 8.0752C17.3425 8.0752 15.9003 8.0752 14.791 8.0752Z" fill="#F4632A"/>
<path d="M12.9419 14.1856C13.8294 14.842 14.9849 15.7109 15.9001 16.395C16.2699 15.9051 16.6396 15.4059 17.0094 14.9159C16.0942 14.2318 14.9387 13.3629 14.0512 12.6973C13.6814 13.1965 13.3117 13.6957 12.9419 14.1856Z" fill="#F4632A"/>
<path d="M17.0094 3.08359C16.6396 2.59364 16.2699 2.09444 15.9001 1.60449C14.9849 2.28858 13.8294 3.15755 12.9419 3.82314C13.3117 4.3131 13.6814 4.81229 14.0512 5.30225C14.9387 4.63665 16.0942 3.77692 17.0094 3.08359Z" fill="#F4632A"/>
<path d="M1.84888 6.22644C0.831995 6.22644 0 7.05844 0 8.07532V9.92419C0 10.9411 0.831995 11.7731 1.84888 11.7731H2.77332V15.4708H4.62219V11.7731H5.54663L10.1688 14.5464V3.45312L5.54663 6.22644H1.84888ZM6.4988 7.80723L8.31995 6.71639V11.2831L6.4988 10.1923L6.05507 9.92419H5.54663H1.84888V8.07532H5.54663H6.05507L6.4988 7.80723Z" fill="#F4632A"/>
<path d="M12.4799 9.00019C12.4799 7.77069 11.9437 6.66136 11.0933 5.90332V12.0878C11.9437 11.339 12.4799 10.2297 12.4799 9.00019Z" fill="#F4632A"/>
</svg>
