<svg width="32" height="32" viewBox="0 0 32 32" fill="none" xmlns="http://www.w3.org/2000/svg">
<path d="M9.99998 29.3333C8.71109 29.3333 7.61109 28.8777 6.69998 27.9666C5.78887 27.0555 5.33331 25.9555 5.33331 24.6666V7.33329C5.33331 6.0444 5.78887 4.9444 6.69998 4.03329C7.61109 3.12218 8.71109 2.66663 9.99998 2.66663H26.6666V22.6666C26.1111 22.6666 25.6389 22.8611 25.25 23.25C24.8611 23.6388 24.6666 24.1111 24.6666 24.6666C24.6666 25.2222 24.8611 25.6944 25.25 26.0833C25.6389 26.4722 26.1111 26.6666 26.6666 26.6666V29.3333H9.99998ZM7.99998 20.4333C8.31109 20.2777 8.63331 20.1666 8.96665 20.1C9.29998 20.0333 9.64442 20 9.99998 20H10.6666V5.33329H9.99998C9.44442 5.33329 8.9722 5.52774 8.58331 5.91663C8.19442 6.30551 7.99998 6.77774 7.99998 7.33329V20.4333ZM13.3333 20H24V5.33329H13.3333V20ZM9.99998 26.6666H22.4333C22.3 26.3555 22.1944 26.0388 22.1166 25.7166C22.0389 25.3944 22 25.0444 22 24.6666C22 24.3111 22.0333 23.9666 22.1 23.6333C22.1666 23.3 22.2778 22.9777 22.4333 22.6666H9.99998C9.4222 22.6666 8.94442 22.8611 8.56665 23.25C8.18887 23.6388 7.99998 24.1111 7.99998 24.6666C7.99998 25.2444 8.18887 25.7222 8.56665 26.1C8.94442 26.4777 9.4222 26.6666 9.99998 26.6666Z" fill="#3068D9"/>
</svg>
