<svg width="18" height="18" viewBox="0 0 18 18" fill="none" xmlns="http://www.w3.org/2000/svg">
<path d="M5.625 16.5C4.9 16.5 4.28125 16.2438 3.76875 15.7313C3.25625 15.2188 3 14.6 3 13.875V4.125C3 3.4 3.25625 2.78125 3.76875 2.26875C4.28125 1.75625 4.9 1.5 5.625 1.5H15V12.75C14.6875 12.75 14.4219 12.8594 14.2031 13.0781C13.9844 13.2969 13.875 13.5625 13.875 13.875C13.875 14.1875 13.9844 14.4531 14.2031 14.6719C14.4219 14.8906 14.6875 15 15 15V16.5H5.625ZM4.5 11.4938C4.675 11.4062 4.85625 11.3438 5.04375 11.3063C5.23125 11.2688 5.425 11.25 5.625 11.25H6V3H5.625C5.3125 3 5.04688 3.10938 4.82813 3.32813C4.60938 3.54688 4.5 3.8125 4.5 4.125V11.4938ZM7.5 11.25H13.5V3H7.5V11.25ZM5.625 15H12.6188C12.5438 14.825 12.4844 14.6469 12.4406 14.4656C12.3969 14.2844 12.375 14.0875 12.375 13.875C12.375 13.675 12.3938 13.4813 12.4313 13.2938C12.4688 13.1063 12.5312 12.925 12.6188 12.75H5.625C5.3 12.75 5.03125 12.8594 4.81875 13.0781C4.60625 13.2969 4.5 13.5625 4.5 13.875C4.5 14.2 4.60625 14.4688 4.81875 14.6813C5.03125 14.8938 5.3 15 5.625 15Z" fill="#2C3142"/>
</svg>
