<svg width="32" height="33" viewBox="0 0 32 33" fill="none" xmlns="http://www.w3.org/2000/svg">
<path d="M18.7829 13.1372V10.7717C19.5482 10.4471 20.3311 10.2036 21.1316 10.0412C21.9312 9.8789 22.7717 9.79773 23.6529 9.79773C24.2559 9.79773 24.8472 9.84412 25.427 9.93688C26.0067 10.0296 26.5749 10.1456 27.1315 10.2847V12.511C26.5749 12.3023 26.0128 12.146 25.4451 12.0421C24.8764 11.9373 24.2791 11.8849 23.6529 11.8849C22.7717 11.8849 21.9252 11.9953 21.1136 12.216C20.3019 12.4359 19.525 12.7429 18.7829 13.1372ZM18.7829 20.79V18.4246C19.5482 18.0999 20.3311 17.8564 21.1316 17.6941C21.9312 17.5318 22.7717 17.4506 23.6529 17.4506C24.2559 17.4506 24.8472 17.497 25.427 17.5897C26.0067 17.6825 26.5749 17.7984 27.1315 17.9376V20.1639C26.5749 19.9552 26.0128 19.7989 25.4451 19.695C24.8764 19.5901 24.2791 19.5377 23.6529 19.5377C22.7717 19.5377 21.9252 19.6421 21.1136 19.8508C20.3019 20.0595 19.525 20.3726 18.7829 20.79ZM18.7829 16.9636V14.5982C19.5482 14.2735 20.3311 14.03 21.1316 13.8677C21.9312 13.7053 22.7717 13.6242 23.6529 13.6242C24.2559 13.6242 24.8472 13.6705 25.427 13.7633C26.0067 13.8561 26.5749 13.972 27.1315 14.1112V16.3374C26.5749 16.1287 26.0128 15.9724 25.4451 15.8685C24.8764 15.7637 24.2791 15.7113 23.6529 15.7113C22.7717 15.7113 21.9252 15.8217 21.1136 16.0425C20.3019 16.2623 19.525 16.5694 18.7829 16.9636ZM8.34719 21.6249C9.43715 21.6249 10.4983 21.7464 11.5308 21.9894C12.5623 22.2334 13.5882 22.5989 14.6086 23.0859V9.38031C13.6578 8.82373 12.649 8.40631 11.5823 8.12802C10.5155 7.84973 9.43715 7.71059 8.34719 7.71059C7.51234 7.71059 6.68351 7.79176 5.86071 7.95409C5.03698 8.11643 4.24248 8.35992 3.47719 8.68459V22.4597C4.28886 22.1814 5.09496 21.9727 5.8955 21.8336C6.6951 21.6944 7.51234 21.6249 8.34719 21.6249ZM17.3915 23.0859C18.4119 22.5989 19.4383 22.2334 20.4707 21.9894C21.5022 21.7464 22.563 21.6249 23.6529 21.6249C24.4878 21.6249 25.3055 21.6944 26.106 21.8336C26.9056 21.9727 27.7112 22.1814 28.5229 22.4597V8.68459C27.7576 8.35992 26.9636 8.11643 26.1408 7.95409C25.3171 7.79176 24.4878 7.71059 23.6529 7.71059C22.563 7.71059 21.4846 7.84973 20.4178 8.12802C19.3511 8.40631 18.3423 8.82373 17.3915 9.38031V23.0859ZM16.0001 27.1906C14.8869 26.3094 13.681 25.6252 12.3823 25.1382C11.0837 24.6512 9.73862 24.4077 8.34719 24.4077C7.37319 24.4077 6.41682 24.5353 5.47807 24.7904C4.53839 25.0455 3.63953 25.4049 2.78148 25.8687C2.29448 26.1238 1.8251 26.1122 1.37335 25.8339C0.920675 25.5557 0.694336 25.1498 0.694336 24.6164V7.84973C0.694336 7.59464 0.758342 7.35114 0.886353 7.11923C1.01344 6.88733 1.20453 6.7134 1.45962 6.59745C2.52638 6.04088 3.63953 5.62345 4.79905 5.34516C5.95857 5.06688 7.14129 4.92773 8.34719 4.92773C9.69224 4.92773 11.0085 5.10166 12.2961 5.44952C13.5827 5.79738 14.8173 6.31916 16.0001 7.01488C17.1828 6.31916 18.4179 5.79738 19.7054 5.44952C20.992 5.10166 22.3079 4.92773 23.6529 4.92773C24.8588 4.92773 26.0415 5.06688 27.2011 5.34516C28.3606 5.62345 29.4737 6.04088 30.5405 6.59745C30.7956 6.7134 30.9871 6.88733 31.1151 7.11923C31.2422 7.35114 31.3058 7.59464 31.3058 7.84973V24.6164C31.3058 25.1498 31.0799 25.5557 30.6281 25.8339C30.1755 26.1122 29.7056 26.1238 29.2186 25.8687C28.3606 25.4049 27.4617 25.0455 26.522 24.7904C25.5833 24.5353 24.6269 24.4077 23.6529 24.4077C22.2615 24.4077 20.9164 24.6512 19.6178 25.1382C18.3191 25.6252 17.1132 26.3094 16.0001 27.1906Z" fill="#F4632A"/>
</svg>
