<svg width="18" height="18" viewBox="0 0 18 18" fill="none" xmlns="http://www.w3.org/2000/svg">
<path d="M10.5654 7.35608V6.02553C10.9959 5.84291 11.4363 5.70594 11.8866 5.61463C12.3364 5.52331 12.8091 5.47766 13.3048 5.47766C13.644 5.47766 13.9766 5.50375 14.3027 5.55592C14.6289 5.6081 14.9484 5.67333 15.2615 5.75159V7.00388C14.9484 6.88648 14.6322 6.79856 14.3129 6.74012C13.9931 6.68116 13.657 6.65167 13.3048 6.65167C12.8091 6.65167 12.333 6.71377 11.8764 6.83795C11.4199 6.96162 10.9829 7.13433 10.5654 7.35608ZM10.5654 11.6608V10.3303C10.9959 10.1476 11.4363 10.0107 11.8866 9.91936C12.3364 9.82804 12.8091 9.78239 13.3048 9.78239C13.644 9.78239 13.9766 9.80848 14.3027 9.86066C14.6289 9.91284 14.9484 9.97806 15.2615 10.0563V11.3086C14.9484 11.1912 14.6322 11.1033 14.3129 11.0448C13.9931 10.9859 13.657 10.9564 13.3048 10.9564C12.8091 10.9564 12.333 11.0151 11.8764 11.1325C11.4199 11.2499 10.9829 11.426 10.5654 11.6608ZM10.5654 9.50845V8.1779C10.9959 7.99527 11.4363 7.8583 11.8866 7.76699C12.3364 7.67568 12.8091 7.63002 13.3048 7.63002C13.644 7.63002 13.9766 7.65611 14.3027 7.70829C14.6289 7.76047 14.9484 7.82569 15.2615 7.90396V9.15625C14.9484 9.03884 14.6322 8.95092 14.3129 8.89248C13.9931 8.83352 13.657 8.80404 13.3048 8.80404C12.8091 8.80404 12.333 8.86613 11.8764 8.99032C11.4199 9.11398 10.9829 9.28669 10.5654 9.50845ZM4.69536 12.1304C5.30846 12.1304 5.90538 12.1988 6.48613 12.3355C7.06635 12.4727 7.64345 12.6783 8.21741 12.9522V5.24285C7.68258 4.92978 7.11514 4.69498 6.51508 4.53844C5.91503 4.38191 5.30846 4.30364 4.69536 4.30364C4.22575 4.30364 3.75953 4.34929 3.29671 4.44061C2.83336 4.53192 2.38646 4.66889 1.95598 4.85151V12.6C2.41254 12.4435 2.86598 12.3261 3.31628 12.2478C3.76606 12.1696 4.22575 12.1304 4.69536 12.1304ZM9.78277 12.9522C10.3567 12.6783 10.9341 12.4727 11.5148 12.3355C12.0951 12.1988 12.6917 12.1304 13.3048 12.1304C13.7744 12.1304 14.2344 12.1696 14.6847 12.2478C15.1345 12.3261 15.5876 12.4435 16.0442 12.6V4.85151C15.6137 4.66889 15.1671 4.53192 14.7043 4.44061C14.2409 4.34929 13.7744 4.30364 13.3048 4.30364C12.6917 4.30364 12.0851 4.38191 11.4851 4.53844C10.885 4.69498 10.3176 4.92978 9.78277 5.24285V12.9522ZM9.00009 15.2611C8.37395 14.7654 7.69562 14.3806 6.96513 14.1067C6.23462 13.8328 5.47804 13.6958 4.69536 13.6958C4.14748 13.6958 3.60952 13.7675 3.08147 13.911C2.55291 14.0545 2.04729 14.2567 1.56464 14.5176C1.29071 14.6611 1.02668 14.6546 0.772572 14.498C0.517941 14.3415 0.390625 14.1132 0.390625 13.8132V4.38191C0.390625 4.23842 0.426628 4.10145 0.498635 3.971C0.570119 3.84055 0.677607 3.74272 0.821098 3.6775C1.42115 3.36442 2.04729 3.12962 2.69953 2.97308C3.35176 2.81655 4.01704 2.73828 4.69536 2.73828C5.45195 2.73828 6.19236 2.83612 6.9166 3.03179C7.64032 3.22746 8.33481 3.52096 9.00009 3.9123C9.66537 3.52096 10.3601 3.22746 11.0844 3.03179C11.8081 2.83612 12.5482 2.73828 13.3048 2.73828C13.9831 2.73828 14.6484 2.81655 15.3007 2.97308C15.9529 3.12962 16.579 3.36442 17.1791 3.6775C17.3226 3.74272 17.4303 3.84055 17.5023 3.971C17.5738 4.10145 17.6096 4.23842 17.6096 4.38191V13.8132C17.6096 14.1132 17.4825 14.3415 17.2284 14.498C16.9738 14.6546 16.7095 14.6611 16.4355 14.5176C15.9529 14.2567 15.4473 14.0545 14.9187 13.911C14.3907 13.7675 13.8527 13.6958 13.3048 13.6958C12.5221 13.6958 11.7656 13.8328 11.0351 14.1067C10.3046 14.3806 9.62623 14.7654 9.00009 15.2611Z" fill="#2C3142"/>
</svg>
