<svg width="32" height="33" viewBox="0 0 32 33" fill="none" xmlns="http://www.w3.org/2000/svg">
<g clip-path="url(#clip0_1018_935)">
<path d="M22.0007 8.059V23.3923C22.0007 26.339 19.614 28.7257 16.6673 28.7257C13.7207 28.7257 11.334 26.339 11.334 23.3923V6.72567C11.334 4.88567 12.8273 3.39233 14.6673 3.39233C16.5073 3.39233 18.0007 4.88567 18.0007 6.72567V20.7257C18.0007 21.459 17.4007 22.059 16.6673 22.059C15.934 22.059 15.334 21.459 15.334 20.7257V8.059H13.334V20.7257C13.334 22.5657 14.8273 24.059 16.6673 24.059C18.5073 24.059 20.0007 22.5657 20.0007 20.7257V6.72567C20.0007 3.779 17.614 1.39233 14.6673 1.39233C11.7207 1.39233 9.33398 3.779 9.33398 6.72567V23.3923C9.33398 27.4457 12.614 30.7257 16.6673 30.7257C20.7207 30.7257 24.0007 27.4457 24.0007 23.3923V8.059H22.0007Z" fill="#3068D9"/>
</g>
<defs>
<clipPath id="clip0_1018_935">
<rect width="32" height="32" fill="white" transform="translate(0 0.059082)"/>
</clipPath>
</defs>
</svg>
