<svg width="32" height="33" viewBox="0 0 32 33" fill="none" xmlns="http://www.w3.org/2000/svg">
<g clip-path="url(#clip0_1018_1428)">
<path d="M21.9997 8.059V23.3923C21.9997 26.339 19.613 28.7257 16.6663 28.7257C13.7197 28.7257 11.333 26.339 11.333 23.3923V6.72567C11.333 4.88567 12.8263 3.39233 14.6663 3.39233C16.5063 3.39233 17.9997 4.88567 17.9997 6.72567V20.7257C17.9997 21.459 17.3997 22.059 16.6663 22.059C15.933 22.059 15.333 21.459 15.333 20.7257V8.059H13.333V20.7257C13.333 22.5657 14.8263 24.059 16.6663 24.059C18.5063 24.059 19.9997 22.5657 19.9997 20.7257V6.72567C19.9997 3.779 17.613 1.39233 14.6663 1.39233C11.7197 1.39233 9.33301 3.779 9.33301 6.72567V23.3923C9.33301 27.4457 12.613 30.7257 16.6663 30.7257C20.7197 30.7257 23.9997 27.4457 23.9997 23.3923V8.059H21.9997Z" fill="#2C3142"/>
</g>
<defs>
<clipPath id="clip0_1018_1428">
<rect width="32" height="32" fill="white" transform="translate(0 0.059082)"/>
</clipPath>
</defs>
</svg>
