<svg width="32" height="33" viewBox="0 0 32 33" fill="none" xmlns="http://www.w3.org/2000/svg">
<path d="M13.1825 15.3272C11.5726 15.3272 10.1945 14.754 9.04813 13.6077C7.90174 12.4613 7.32854 11.0831 7.32854 9.47332C7.32854 7.86348 7.90174 6.48537 9.04813 5.33898C10.1945 4.19258 11.5726 3.61938 13.1825 3.61938C14.7923 3.61938 16.1704 4.19258 17.3168 5.33898C18.4632 6.48537 19.0364 7.86348 19.0364 9.47332C19.0364 11.0831 18.4632 12.4613 17.3168 13.6077C16.1704 14.754 14.7923 15.3272 13.1825 15.3272ZM1.47461 27.0351V22.9374C1.47461 22.1324 1.68194 21.3763 2.09659 20.669C2.51124 19.9616 3.08444 19.425 3.81618 19.0591C5.06014 18.425 6.46265 17.8883 8.02369 17.4493C9.58474 17.0103 11.3043 16.7907 13.1825 16.7907H13.6947C13.841 16.7907 13.9874 16.8151 14.1337 16.8639C13.9386 17.3029 13.7737 17.7605 13.6391 18.2367C13.5054 18.7118 13.402 19.2055 13.3288 19.7177H13.1825C11.4507 19.7177 9.89549 19.9372 8.51689 20.3763C7.13926 20.8153 6.01141 21.2544 5.13332 21.6934C4.91379 21.8154 4.7372 21.9861 4.60354 22.2056C4.46889 22.4251 4.40157 22.6691 4.40157 22.9374V24.1081H13.6215C13.7679 24.6204 13.963 25.1267 14.2069 25.6272C14.4508 26.1268 14.7191 26.5961 15.0118 27.0351H1.47461ZM21.9634 28.4986L21.5243 26.3034C21.2316 26.1814 20.957 26.0536 20.7004 25.9199C20.4448 25.7853 20.1828 25.6204 19.9145 25.4253L17.7924 26.0838L16.329 23.5959L18.012 22.1324C17.9632 21.791 17.9388 21.4739 17.9388 21.1812C17.9388 20.8885 17.9632 20.5714 18.012 20.2299L16.329 18.7664L17.7924 16.2785L19.9145 16.9371C20.1828 16.7419 20.4448 16.5771 20.7004 16.4424C20.957 16.3088 21.2316 16.1809 21.5243 16.059L21.9634 13.8638H24.8903L25.3294 16.059C25.6221 16.1809 25.8967 16.3151 26.1533 16.4614C26.4089 16.6078 26.6709 16.7907 26.9392 17.0103L29.0613 16.2785L30.5247 18.8396L28.8417 20.3031C28.8905 20.5958 28.9149 20.9007 28.9149 21.2178C28.9149 21.5349 28.8905 21.8397 28.8417 22.1324L30.5247 23.5959L29.0613 26.0838L26.9392 25.4253C26.6709 25.6204 26.4089 25.7853 26.1533 25.9199C25.8967 26.0536 25.6221 26.1814 25.3294 26.3034L24.8903 28.4986H21.9634ZM23.4268 24.1081C24.2318 24.1081 24.9211 23.8218 25.4947 23.2491C26.0675 22.6754 26.3538 21.9861 26.3538 21.1812C26.3538 20.3763 26.0675 19.687 25.4947 19.1133C24.9211 18.5406 24.2318 18.2542 23.4268 18.2542C22.6219 18.2542 21.9331 18.5406 21.3604 19.1133C20.7867 19.687 20.4999 20.3763 20.4999 21.1812C20.4999 21.9861 20.7867 22.6754 21.3604 23.2491C21.9331 23.8218 22.6219 24.1081 23.4268 24.1081ZM13.1825 12.4003C13.9874 12.4003 14.6767 12.1134 15.2504 11.5398C15.8231 10.967 16.1094 10.2782 16.1094 9.47332C16.1094 8.6684 15.8231 7.97959 15.2504 7.40688C14.6767 6.83319 13.9874 6.54635 13.1825 6.54635C12.3776 6.54635 11.6887 6.83319 11.116 7.40688C10.5423 7.97959 10.2555 8.6684 10.2555 9.47332C10.2555 10.2782 10.5423 10.967 11.116 11.5398C11.6887 12.1134 12.3776 12.4003 13.1825 12.4003Z" fill="#2C3142"/>
</svg>
